<svg width="40" height="40" viewBox="0 0 22 40" fill="none" xmlns="http://www.w3.org/2000/svg">
    <path d="M16.8 21.6C18.1 21.6 19.1 22.6 19.1 23.9V40H14.1V23.9C14.1 22.6 15.1 21.6 16.4 21.6H16.8Z" fill="#FFCE54"/>
    <path d="M10.9 21.6C12.2 21.6 13.2 22.6 13.2 23.9V40H8.2V23.9C8.2 22.6 9.2 21.6 10.5 21.6H10.9Z" fill="#FFCE54"/>
    <path d="M3 23.9C3 22.6 3.9 21.6 5.2 21.6H5.6C6.9 21.6 7.8 22.6 7.8 23.9V40H2.8V23.9H3Z" fill="#FFCE54"/>
    <path d="M22 16.1V0H12V16.1C12 17.1 11.1 18 10.1 18H3.9C2.9 18 2 17.1 2 16.1V0H0V16.1C0 18.8 1.8 21 4.3 21H17.7C20.2 21 22 18.8 22 16.1Z" fill="#FFCE54"/>
</svg>
